<?xml version="1.0" encoding="UTF-8"?>
<svg width="146px" height="146px" viewBox="0 0 146 146" version="1.1" xmlns="http://www.w3.org/2000/svg" xmlns:xlink="http://www.w3.org/1999/xlink">
    <!-- Generator: Sketch 48.2 (47327) - http://www.bohemiancoding.com/sketch -->
    <title>Group 17</title>
    <desc>Created with Sketch.</desc>
    <defs>
        <filter x="-3.6%" y="-2.9%" width="107.1%" height="107.1%" filterUnits="objectBoundingBox" id="filter-1">
            <feOffset dx="0" dy="1" in="SourceAlpha" result="shadowOffsetOuter1"></feOffset>
            <feGaussianBlur stdDeviation="1.5" in="shadowOffsetOuter1" result="shadowBlurOuter1"></feGaussianBlur>
            <feColorMatrix values="0 0 0 0 0.741176471   0 0 0 0 0.745098039   0 0 0 0 0.768627451  0 0 0 1 0" type="matrix" in="shadowBlurOuter1" result="shadowMatrixOuter1"></feColorMatrix>
            <feMerge>
                <feMergeNode in="shadowMatrixOuter1"></feMergeNode>
                <feMergeNode in="SourceGraphic"></feMergeNode>
            </feMerge>
        </filter>
        <filter x="-11.3%" y="-9.8%" width="122.5%" height="123.7%" filterUnits="objectBoundingBox" id="filter-2">
            <feOffset dx="0" dy="2" in="SourceAlpha" result="shadowOffsetOuter1"></feOffset>
            <feGaussianBlur stdDeviation="3.5" in="shadowOffsetOuter1" result="shadowBlurOuter1"></feGaussianBlur>
            <feColorMatrix values="0 0 0 0 0   0 0 0 0 0   0 0 0 0 0  0 0 0 0.5 0" type="matrix" in="shadowBlurOuter1" result="shadowMatrixOuter1"></feColorMatrix>
            <feMerge>
                <feMergeNode in="shadowMatrixOuter1"></feMergeNode>
                <feMergeNode in="SourceGraphic"></feMergeNode>
            </feMerge>
        </filter>
    </defs>
    <g id="Home" stroke="none" stroke-width="1" fill="none" fill-rule="evenodd" transform="translate(-1159.000000, -2065.000000)">
        <g id="Group-21" transform="translate(-11.000000, 2000.000000)">
            <g id="Group-17" filter="url(#filter-1)" transform="translate(1173.000000, 67.000000)">
                <rect id="Rectangle-6" fill="#B41D24" x="0" y="0" width="140" height="140" rx="30"></rect>
                <g id="308556" filter="url(#filter-2)" transform="translate(19.000000, 22.000000)" fill="#FFFFFF" fill-rule="nonzero">
                    <path d="M90.4791091,5.5445183 C89.7843944,4.81879733 88.6584574,4.81819054 87.9635493,5.5445183 L69.5212053,24.8254764 C68.8262971,25.5518042 68.8262971,26.728977 69.5210118,27.455507 C69.8684659,27.8185698 70.3234837,28 70.7788885,28 C71.2339063,28 71.689311,27.8185698 72.0367651,27.455507 L90.4791091,8.17454891 C91.1736303,7.44801888 91.1736303,6.2706438 90.4791091,5.5445183 Z" id="Shape"></path>
                    <path d="M94.478956,11.5444346 C93.7840371,10.8185218 92.6580828,10.8185218 91.9633575,11.5444346 L73.5209231,30.8255218 C72.8263912,31.5520414 72.8263912,32.7291974 73.5207297,33.4555148 C73.8681891,33.8185723 74.3236008,34 74.7786256,34 C75.2336505,34 75.6890622,33.8185723 76.0365216,33.4555148 L94.478956,14.1742254 C95.1736813,13.447908 95.1736813,12.2705498 94.478956,11.5444346 Z" id="Shape"></path>
                    <path d="M77.7861738,42.9464053 L101.461181,19.1553931 C102.179606,18.4332471 102.179606,17.2631776 101.461181,16.5412326 C100.742557,15.8198907 99.5781922,15.8192876 98.8597675,16.5412326 L75.18516,40.3322448 C72.2684474,43.2630479 67.808652,44.0320369 64.0876877,42.246374 C63.3474561,41.8913323 62.4635796,42.0708636 61.9192093,42.6872611 L53.8748923,51.7951066 C53.8716913,51.7985243 53.8680902,51.80154 53.8648892,51.8051587 C53.8616882,51.8087775 53.8592874,51.8125973 53.8560864,51.8162161 L19.0874078,91.1798087 C19.078605,91.1898608 19.0698023,91.200114 19.0611996,91.2103672 C18.9465637,91.345669 18.8383298,91.4644854 18.7286955,91.5748579 C16.4329772,93.8816239 12.6978085,93.8814229 10.4030906,91.5748579 C9.29114264,90.4576626 8.67875103,88.9717547 8.67875103,87.3915577 C8.67875103,85.8113607 9.29114264,84.3256538 10.4050912,83.206247 C10.5119246,83.098287 10.6299615,82.9899249 10.765804,82.8737221 C10.7762073,82.8650773 10.7862104,82.8562314 10.7962136,82.8473855 L32.5326146,63.4600165 C33.2924523,62.782301 33.3614739,61.6140408 32.687263,60.850681 C32.012852,60.0869191 30.8500881,60.0171572 30.0906505,60.6952749 L8.36865401,80.0697771 C8.16098903,80.2477 7.97513088,80.4199938 7.80187667,80.594298 C5.99511136,82.4099162 5,84.823838 5,87.3915577 C5,89.9590763 5.99491129,92.3731992 7.80167661,94.1888174 C9.6668602,96.0627381 12.1162266,96.999799 14.5661931,96.9995979 C17.0151594,96.9995979 19.4651259,96.0629391 21.3289091,94.1898226 C21.5055644,94.0127039 21.6766179,93.825734 21.8522729,93.6190619 L48.3469627,63.6222581 L74.8420526,93.619464 C75.0175075,93.8263371 75.1885611,94.013307 75.364016,94.1892195 C77.2287994,96.0631402 79.6783659,97 82.1279323,97 C84.5776988,97 87.0274653,96.0629391 88.8924488,94.1890185 C92.6216156,90.4409761 92.6216156,84.3429435 88.8934491,80.5959063 C88.7173941,80.4183854 88.5311358,80.2464938 88.3256715,80.0701792 L57.8379323,52.8771194 L63.8027986,46.123687 C68.6357108,47.844413 74.1042218,46.6457953 77.7861738,42.9464053 Z M85.8977118,82.8475865 C85.9077149,82.8564324 85.9179181,82.8652783 85.9281213,82.8739232 C86.0627635,82.9891207 86.1810004,83.0978849 86.2908348,83.2080564 C88.586153,85.5148224 88.586153,89.2680919 86.2910349,91.5744558 C83.9953166,93.8810208 80.260348,93.8810208 77.9640295,91.5734506 C77.8553955,91.4642843 77.7467615,91.3452669 77.6321256,91.2099651 C77.6235229,91.1997119 77.6147202,91.1894587 77.6059174,91.1794066 L50.8061321,60.8376132 L55.395368,55.64166 L85.8977118,82.8475865 Z" id="Shape"></path>
                    <path d="M85.4614404,0.537720867 C84.7431609,-0.179240289 83.5793561,-0.179240289 82.8612766,0.537720867 L59.1980468,24.1778619 C55.5174644,27.8543604 54.3256643,33.3141724 56.0371772,38.1409251 L48.7553989,44.5977706 L41.7569731,38.3922311 C45.3761659,31.2781546 44.0549875,22.6404607 38.3131509,16.9041721 C32.6105077,11.2072375 26.0052159,7.19812819 19.7140715,5.61577954 C13.1465734,3.96431176 7.51591808,5.06682182 3.85773186,8.72114626 C0.199545627,12.3754707 -0.904269175,18.0012885 0.749253397,24.5618127 C2.33338761,30.8462599 6.34631432,37.4449394 12.0493575,43.1416742 C17.7911941,48.8781625 26.4373434,50.1980183 33.5589486,46.5822488 C33.5589486,46.5822488 40.4028003,54.2848367 40.4895858,54.3827222 C40.8529248,54.7916438 41.3578401,55 41.8653549,55 C42.2994821,55 42.735009,54.8473786 43.0851503,54.5369418 L59.4556036,40.0211253 C60.0685008,39.4775613 60.2470708,38.5945943 59.8941301,37.8558586 C58.1176281,34.1400062 58.8826997,29.687216 61.7980106,26.775223 L85.4614404,3.13528172 C86.1795199,2.41772127 86.1795199,1.25508155 85.4614404,0.537720867 Z M42.0191291,50.570982 L35.326652,43.0385948 C34.7339514,42.3715753 33.7465171,42.2257459 32.9866446,42.6945973 C27.0920336,46.3257489 19.5512988,45.4421826 14.6489213,40.5445129 C9.40900046,35.3100373 5.73901621,29.3156507 4.31465519,23.6648621 C2.98987746,18.4076131 3.75094977,14.0227434 6.4578956,11.3187071 C9.16444149,8.6142713 13.5537051,7.8543604 18.8160221,9.17801173 C24.4724731,10.6007471 30.4732663,14.2668578 35.7127872,19.5015332 C40.6151647,24.3988034 41.4998163,31.9319896 37.8648261,37.8206998 C37.3961048,38.5800114 37.5414804,39.5660577 38.2091684,40.1583647 L45.9854637,47.0534974 L42.0191291,50.570982 Z" id="Shape"></path>
                </g>
            </g>
        </g>
    </g>
</svg>