<?xml version="1.0" encoding="UTF-8"?>
<svg width="300px" height="121px" viewBox="0 0 300 121" version="1.1" xmlns="http://www.w3.org/2000/svg" xmlns:xlink="http://www.w3.org/1999/xlink">
    <!-- Generator: Sketch 48.2 (47327) - http://www.bohemiancoding.com/sketch -->
    <title>logo</title>
    <desc>Created with Sketch.</desc>
    <defs></defs>
    <g id="Home" stroke="none" stroke-width="1" fill="none" fill-rule="evenodd" transform="translate(-570.000000, -3760.000000)">
        <g id="logo" transform="translate(570.000000, 3760.000000)">
            <path d="M17.1065336,45.3501696 C15.8316347,45.3501696 11.965812,43.9881948 11.965812,81.0091459 C11.965812,109.115353 14.1866037,107.670834 16.0783893,107.670834 L24.8793048,107.670834 C25.5373172,107.670834 27.4291027,107.877194 27.3468512,107.010483 C27.4291027,106.185044 24.4269213,95.7019649 24.4269213,89.1809947 C24.4269213,83.0314721 27.7169832,79.2344515 34.2971069,79.2344515 C37.2170368,79.2344515 39.2321997,80.2662506 39.9724636,80.2662506 C41.2473626,80.2662506 44.1672925,68.586285 44.1672925,68.2148373 C44.1672925,66.9354064 42.44001,66.9354064 41.6174945,66.9354064 C31.7473089,66.9354064 31.3360512,70.3609794 26.48321,70.3609794 C24.303544,70.3609794 24.0979151,68.9577326 24.0979151,64.4590886 C24.0979151,57.277767 29.5265172,54.1823698 34.7083646,54.1823698 C42.0287523,54.1823698 44.249544,57.6904867 45.524443,57.6904867 C46.5114616,57.6904867 51.2820513,47.207408 51.2820513,46.5883285 C51.2820513,45.1025378 48.608876,45.3088977 47.704109,45.3088977 L17.1065336,45.3088977 L17.1065336,45.3501696 Z" id="Shape" fill="#FFFFFF" fill-rule="nonzero"></path>
            <path d="M52.7251595,103.904904 C60.1226561,108.155715 72.5880508,106.725153 81.293392,91.6429478 C86.8517319,81.9968759 88.5274079,69.2035687 79.6585861,62.2960003 C79.9855473,62.5412394 80.3533786,62.7456053 80.6803398,62.9908445 C80.8846905,59.9253555 83.5003799,56.6963738 86.4021603,54.1622363 C85.8299783,53.7535045 85.2577962,53.3856458 84.7264843,53.0586603 L83.9908217,52.2820698 L79.6585861,44.7614036 L79.5359757,45.0066427 C79.4542354,49.7888054 77.8602997,56.8189934 74.1411163,59.2713845 C74.3045969,59.3531309 74.4680775,59.4348773 74.6724282,59.5166237 C64.4957617,55.8789101 54.5643161,63.6039423 49.0877165,73.0456482 C40.3415051,88.1278538 45.327663,99.6540922 52.7251595,103.904904 Z M96.5788268,40.5105922 L109.044222,18.9295501 C110.106845,17.0902567 108.71726,14.2700069 105.978961,12.6759526 L105.161558,12.1854744 C102.382388,10.5914202 99.2762565,10.7957861 98.2136327,12.6350794 L89.3448109,28.0033973 L96.5788268,40.5105922 Z" id="Shape" fill="#FFFFFF" fill-rule="nonzero"></path>
            <path d="M145.923331,82.9766558 C145.923331,69.4935842 153.14847,65.3260894 156.314542,65.3260894 C159.034116,65.3260894 161.023059,66.2249608 161.023059,79.2585967 C160.982468,84.6109676 162.037826,96.0102917 154.082055,96.0102917 C147.831092,96.0102917 145.923331,88.0838799 145.923331,82.9766558 Z M170.927182,80.2800415 C170.927182,76.8071291 171.211317,43.5897436 167.923473,43.5897436 L160.251836,43.5897436 C159.521204,43.5897436 157.654034,43.5897436 157.654034,44.6111884 C157.654034,47.4303761 159.480614,50.0861326 159.480614,56.0922282 C159.480614,57.2771042 159.27766,59.9328607 157.775806,59.9328607 C156.761039,59.9328607 155.137412,58.2168334 153.594967,58.2168334 C147.10046,58.2168334 135.897436,67.4915524 135.897436,84.4475364 C135.897436,99.4423463 143.122575,106.755891 151.36248,106.755891 L168.654105,106.755891 C171.251907,106.837607 170.927182,81.9960688 170.927182,80.2800415 Z" id="Shape" fill="#FFFFFF" fill-rule="nonzero"></path>
            <path d="M186.703451,106.779261 C188.407443,106.779261 190.598291,107.228282 190.598291,104.860716 C190.598291,104.207595 187.717732,92.696326 187.717732,74.0415395 C187.717732,65.9591594 188.6103,63.2242125 188.6103,60.4892657 C188.6103,59.5912235 188.529157,59.387123 185.445743,59.387123 L181.388618,59.387123 C178.954344,59.387123 177.777778,56.9379169 177.777778,82.2872001 C177.777778,108.371245 178.061776,106.820081 181.672617,106.820081 L186.703451,106.820081 L186.703451,106.779261 Z M184.269177,53.5906685 C187.230877,53.5906685 189.949151,51.8762243 189.949151,48.6922563 C189.949151,45.5082884 187.230877,43.5897436 184.269177,43.5897436 C181.307476,43.5897436 178.589203,45.5082884 178.589203,48.6922563 C178.589203,51.8762243 181.348047,53.5906685 184.269177,53.5906685 Z" id="Shape" fill="#FFFFFF" fill-rule="nonzero"></path>
            <path d="M226.786776,107.679801 C229.328332,107.679801 231.623932,109.166465 231.623932,79.7222571 C231.623932,60.023958 222.974441,59.6935882 220.924799,59.6935882 C216.169628,59.6935882 212.726229,62.7495088 211.496444,62.7495088 C210.758573,62.7495088 210.389637,62.0887693 210.389637,61.3454372 C210.389637,60.3130316 211.045523,59.4045147 211.045523,58.6611826 C211.045523,56.9267412 208.380988,57.2984072 205.757445,57.2984072 C200.018447,57.2984072 197.435897,55.1922998 197.435897,89.1377963 C197.435897,108.918688 198.542704,107.638505 201.289225,107.638505 L207.602123,107.638505 C208.339995,107.638505 209.610773,107.721097 209.610773,106.647396 C209.610773,105.738879 207.438152,94.2172319 207.438152,85.214655 C207.438152,70.3893104 213.259136,68.489684 216.087643,68.489684 C221.129763,68.489684 221.580684,75.1796724 221.580684,80.4655892 C221.580684,95.6625998 217.768349,105.656286 217.768349,106.399618 C217.768349,107.80369 219.408063,107.597209 220.391892,107.597209 L226.786776,107.597209 L226.786776,107.679801 Z" id="Shape" fill="#FFFFFF" fill-rule="nonzero"></path>
            <path d="M102.742925,59.3255214 C99.0606685,56.8252104 97.5059381,49.8161419 97.4241101,45.0614521 L78.7264305,12.6393866 C77.6626675,10.7948949 74.5532066,10.5899514 71.7710573,12.1885109 L70.9527781,12.6803753 C68.1706288,14.2789348 66.8204682,17.0661667 67.8842311,18.9516471 L86.5819108,51.3737127 C90.6733068,53.8740237 95.9921215,58.7516795 96.2376053,63.2194484 C96.3603472,63.1374709 96.524003,63.0145048 96.6467449,62.9325274 C88.423039,69.9825846 90.1414253,82.4431509 95.5829819,91.9115417 C99.9198617,99.4534634 105.197763,103.593323 110.312007,105.314848 L102.088302,91.0507789 C101.35185,89.7801291 101.801904,88.1405809 103.070237,87.4027842 C104.338569,86.6649875 105.975128,87.1158633 106.711579,88.3865131 L115.753564,104.085187 C116.571843,105.519792 118.208402,106.257588 119.84496,105.88869 C120.499583,105.724735 121.113293,105.56078 121.727002,105.314848 L110.639319,86.0911456 C109.902868,84.8204958 110.352921,83.1809476 111.621254,82.4431509 C112.889587,81.7053542 114.526145,82.15623 115.262597,83.4268798 L126.35028,102.650582 C126.841247,102.240695 127.332215,101.78982 127.782268,101.297955 C128.927859,100.068294 129.132429,98.3057797 128.273236,96.871175 L119.231251,81.1725011 C118.494799,79.9018512 118.944853,78.262303 120.213186,77.5245063 C121.481519,76.7867096 123.118077,77.2375854 123.854528,78.5082353 L132.078234,92.7313158 C133.141997,87.4437729 132.200976,80.762614 127.864096,73.2206923 C122.299798,63.547358 112.030394,55.6775267 101.597334,59.940352 C101.96556,59.6944197 102.333785,59.5304649 102.742925,59.3255214 Z" id="Shape" fill="#FFFFFF" fill-rule="nonzero"></path>
            <path d="M202.462074,48.1777749 C207.468227,47.7664316 214.485049,47.8898346 218.342249,50.6869695 C225.071833,49.8231484 231.391076,51.7153279 236.233093,56.486911 C259.622499,34.5211751 300,51.0983128 300,85.4454841 C300,98.2793972 291.998361,108.604116 278.621262,108.604116 C278.128854,108.604116 277.677479,108.604116 277.185071,108.562981 L277.185071,108.604116 C273.738211,108.35731 270.414453,107.287817 267.501036,105.477906 C263.931074,109.303399 259.417329,111.072176 255.27289,111.072176 C246.696775,111.072176 236.6024,103.544592 236.6024,85.9802305 C236.6024,73.9690041 242.347166,61.0528224 255.27289,61.0528224 C259.991806,61.0528224 263.766938,62.7804645 266.639321,65.5364651 C267.54207,61.7932404 268.567921,62.0811808 269.101364,62.0811808 L275.297505,62.0811808 C276.036117,62.0811808 277.472309,61.9166434 277.472309,62.9861362 C277.472309,63.5620169 274.43579,73.1874517 274.43579,84.2937227 C274.43579,87.9135443 274.599926,91.2042913 274.887164,94.1248292 C275.584743,101.81695 284.817403,105.2311 290.315965,99.842502 C294.132131,96.0992773 295.691425,90.7106792 295.691425,85.4866184 C295.691425,54.1422538 258.473546,38.5523401 236.027923,59.1606429 C232.170723,54.5947315 226.302854,51.2628502 219.737407,51.7975966 C218.834658,51.8798652 218.013977,52.0444026 217.152262,52.1678056 L216.372615,51.5096562 C213.418164,49.0004617 205.334457,48.671387 201.148984,49.6174767 L198.76901,50.1522231 L198.522805,47.7252972 C197.496954,37.1537727 185.022604,32.6289956 176.692693,38.1821311 L175.297536,39.1282208 L174.066514,37.9764594 C169.552769,33.8218914 149.856427,33.7396227 149.856427,44.9281623 C149.856427,46.9437448 150.38987,48.79479 150.80021,50.7281038 L148.87161,51.3039845 C143.537184,52.9082237 138.777235,56.8159857 135.453477,61.2173597 L133.85315,63.3563452 C128.970098,53.6486417 120.311915,49.411805 109.766165,48.5068496 L108.042735,48.3423123 C107.878599,47.1082822 107.714463,45.9565207 107.714463,44.7224906 L107.057918,41.472878 L107.38619,41.472878 L117.562634,23.8262475 C118.711587,21.8517993 119.245029,19.7128138 119.286063,17.5738283 C119.409166,11.6916181 115.716101,6.42642303 110.750982,3.54701945 L108.371007,2.27185501 C107.057918,1.65483996 105.66276,1.20236225 104.185535,0.914421895 C98.2766321,-0.237339537 92.0804912,1.90164598 88.9619038,7.29024411 C88.9619038,7.29024411 88.6746655,7.78385615 88.3053591,8.4008712 L88.3053591,8.52427421 C87.8950186,7.82499048 87.6077803,7.29024411 87.6077803,7.29024411 C84.4891928,1.90164598 78.2930519,-0.1962052 72.3841494,0.914421895 C70.9479578,1.20236225 69.5528002,1.65483996 68.1986767,2.27185501 L65.8187021,3.54701945 C60.8535826,6.42642303 57.1605185,11.6504838 57.2836206,17.5738283 C57.3246547,19.7128138 57.8991313,21.8517993 59.0070505,23.8262475 L69.2245279,41.5551467 L71.7276047,45.9153864 L71.7686387,46.1210581 L74.4768857,50.9337755 C72.0969111,50.4401635 69.7169364,50.3167604 67.4600639,50.4812978 C62.3308082,51.0571785 57.5298249,53.4018357 53.2622842,56.1989706 C61.3870252,51.4273875 62.125638,38.5934744 50.4719691,37.4005787 C49.6512882,37.31831 48.8306072,37.31831 48.0099263,37.3594443 L17.6857667,37.3594443 L17.6447326,37.3594443 C11.2434215,37.194907 8.04276597,42.0898931 6.60657438,47.7664316 C4.34970188,56.8982543 4.34970188,70.1846451 4.34970188,79.933483 L4.34970188,82.8951552 C4.34970188,90.1759328 4.30866783,99.7602333 5.86796156,106.341727 C7.18105102,111.935997 10.5458428,115.843759 16.5778474,115.679222 L25.2360311,115.679222 L25.2770651,115.679222 C30.4473548,115.802625 38.2027894,113.704774 37.6693469,106.259459 L37.6693469,106.218324 C37.0538362,99.34889 34.8790318,96.7985611 37.9155511,89.1887088 C37.9565852,89.0653057 37.9565852,88.9007684 37.9976192,88.7773654 C37.9565852,88.9007684 37.9155511,89.0653057 37.9155511,89.1887088 L37.6283128,91.6156346 C37.5052107,93.9191575 37.9155511,96.2638147 38.6541639,98.4439345 C39.7620832,101.446741 41.403445,104.243876 43.4961813,106.588533 L43.6192835,106.711936 C43.7013515,106.794205 43.7834196,106.876474 43.8654877,106.999877 L43.9475558,107.082145 C45.5068496,108.768653 47.3123476,110.208355 49.3230158,111.360116 C50.0616286,111.812594 50.8412755,112.182803 51.6619564,112.553012 C52.1133309,112.717549 52.6057394,112.882087 53.0571139,113.00549 L53.0160799,113.087758 C58.3915399,115.062207 64.3004424,114.979938 69.7579705,113.170027 C76.3234178,110.989907 81.6988777,106.46513 85.8433163,100.953129 L86.6229632,99.9247707 C85.2278056,94.3716352 86.0484865,89.9702612 86.0484865,89.9702612 C86.7050313,98.3205315 91.6291167,105.354503 99.097313,111.031042 C109.807199,118.805431 120.927425,116.70758 136.602431,111.031042 L137.71035,110.619698 L138.613099,111.318982 C142.347197,114.157251 146.984044,115.679222 151.661925,115.679222 C195.773524,115.679222 152.810879,115.679222 181.945051,115.679222 C192.244596,115.679222 193.680788,115.555819 195.199048,119.957193 C145.137512,119.957193 200.90278,119.957193 151.661925,119.957193 C146.491636,119.957193 141.280312,118.352954 136.971737,115.432416 C118.383314,123.906089 100.08213,122.507522 87.5257122,105.683578 C83.0940353,110.907639 77.6365072,115.021072 71.112094,117.201192 C63.1925232,119.83379 54.4522715,119.257909 47.1482114,115.062207 C44.3578963,113.457967 41.9368876,111.401251 39.8851853,109.015459 C39.638981,110.701967 39.0234704,112.265072 38.1617554,113.704774 C35.2073041,118.476357 30.570457,120.080596 25.153963,119.957193 L16.5368134,119.957193 C8.45310643,120.162864 3.36488478,114.897669 1.60042082,107.328951 C-0.0409409978,100.29498 9.30477223e-05,90.4227389 9.30477223e-05,82.8951552 L9.30477223e-05,79.933483 C9.30477223e-05,69.9378391 9.30477223e-05,59.4074489 2.38006769,49.8231484 C4.30866783,42.1310274 9.10965116,36.0020112 17.6036986,36.1665486 L47.9278582,36.1665486 C48.8716413,36.1665486 49.8154243,36.1665486 50.7592074,36.2488172 C58.0632675,36.9069666 63.890102,39.2104895 63.890102,46.7792075 L63.890102,47.0671478 C64.9569871,46.8203418 65.9828383,46.6558045 67.0497235,46.5324015 L64.1773403,41.5551467 L55.2319183,29.6673233 C52.195399,24.4021282 52.236433,18.149709 54.903646,12.7199766 C56.7912121,8.85334891 59.9097995,5.68600497 63.6438977,3.50588512 L66.4342128,2.02504899 C72.4251834,-0.730951579 79.4420052,-0.813220252 85.1867716,2.64206404 C86.2946908,3.30021343 87.320542,4.08176583 88.223291,4.98672124 L88.223291,4.94558691 C89.12604,4.08176583 90.1518911,3.30021343 91.2187763,2.68319838 C96.9635427,-0.772085915 103.980364,-0.689817242 109.971335,2.06618333 L112.76165,3.54701945 C116.454714,5.68600497 119.573302,8.85334891 121.501902,12.7611109 C126.220817,23.3326355 118.957791,32.6289956 112.228208,41.5551467 L111.899935,43.4473262 L112.023037,46.4912671 C121.542936,48.3834466 131.309039,53.9777164 133.689013,62.0811808 C135.945886,56.5280453 140.869971,51.7975966 145.506819,49.9465514 C145.342682,48.9593273 145.547853,49.0004617 145.547853,48.0132376 C145.547853,33.4928167 167.993475,31.4772342 175.625808,36.9069666 C179.277838,34.8913841 184.242958,34.3977721 188.920839,35.3438618 C195.281116,36.6190263 201.025882,41.8430871 202.462074,48.1777749 Z M255.313924,98.5673376 C262.823155,98.5673376 264.751755,90.0525298 264.751755,84.088051 C264.751755,78.2058408 262.659019,69.8144361 255.313924,69.8144361 C247.927796,69.8144361 245.876094,78.1647065 245.876094,84.088051 C245.83506,90.0525298 247.804694,98.5673376 255.313924,98.5673376 Z" id="Shape" fill="#ED4F4F" fill-rule="nonzero"></path>
            <path d="M50.3683131,74.4148913 C55.7845546,65.0088039 66.6991019,56.4652835 77.7777778,62.955073 C67.1094232,57.1224774 56.0307474,65.5838486 50.7786344,74.661339 C47.4550316,80.4939347 45.9778748,86.1211573 46.2240676,90.5982906 C45.7727142,84.8478442 47.5370959,79.3438454 50.3683131,74.4148913 Z" id="Shape" fill="#9B9B9B"></path>
            <path d="M94.1438277,86.6634748 C90.6453719,77.2422598 91.3369271,64.4767174 103.418803,60.6837607 C92.1098418,64.5990708 91.2555677,77.3646133 94.6319843,86.5003369 C96.7880093,92.3733021 99.7983085,97.4713622 103.256085,100 C98.6592764,96.8188105 95.974415,91.6391815 94.1438277,86.6634748 Z" id="Shape" fill="#535353"></path>
            <path d="M71.7948718,12.8205128 C71.7948718,12.8205128 69.697321,14.6302771 68.9981374,16.5663041 C68.372552,18.3339808 70.2125089,22.6269101 71.2060856,23.9316239 C70.249308,22.7110852 69.3293296,21.1959337 68.8141417,19.7228697 C68.372552,18.5444185 68.2253555,17.3659674 68.5565477,16.4400414 C69.2557313,14.4198394 71.7580727,12.8205128 71.7948718,12.8205128 Z" id="Shape" fill="#7E7E7E"></path>
            <path d="M102.068165,12.477504 C100.16883,12.602799 97.2143083,16.3616483 96.5811966,17.9487179 C97.2143083,16.4451782 98.1006648,14.8581086 99.155851,13.6886888 C100,12.728094 100.970771,12.0598541 101.98375,11.9763241 C104.094123,11.8092641 106.837607,13.6886888 106.837607,13.6886888 C106.837607,13.6886888 104.13633,12.352209 102.068165,12.477504 Z" id="Shape" fill="#9B9B9B"></path>
        </g>
    </g>
</svg>