<?xml version="1.0" encoding="UTF-8"?>
<svg width="107px" height="97px" viewBox="0 0 107 97" version="1.1" xmlns="http://www.w3.org/2000/svg" xmlns:xlink="http://www.w3.org/1999/xlink">
    <!-- Generator: Sketch 48.2 (47327) - http://www.bohemiancoding.com/sketch -->
    <title>cheers</title>
    <desc>Created with Sketch.</desc>
    <defs></defs>
    <g id="Home" stroke="none" stroke-width="1" fill="none" fill-rule="evenodd" transform="translate(-817.000000, -3384.000000)" opacity="0.98999995">
        <g id="cheers" transform="translate(817.000000, 3384.000000)" fill="#B41D24" fill-rule="nonzero">
            <path d="M50.4949128,23.2515741 C50.4735211,22.3183583 49.8365945,21.5117902 48.9324816,21.2737762 L28.9352501,16.009836 C28.933782,16.009208 28.9321042,16.0089987 28.9306362,16.00858 L21.3992985,14.0259674 C20.5073495,13.7906747 19.5640186,14.1666405 19.0791406,14.9514378 C16.0627047,19.8352254 13.6905357,25.2685177 12.219124,30.664339 C9.76285638,39.6695159 10.1797843,47.3950274 13.4248176,53.0056264 C15.3022516,56.2517857 18.0573736,58.634019 21.461586,59.9911384 L13.7511455,88.2620516 L2.63250772,85.3351284 C1.5134295,85.0403846 0.365199883,85.7073262 0.0699108769,86.8253849 C-0.225587851,87.9432343 0.442797136,89.0885066 1.56292397,89.3834597 C1.56397258,89.383669 14.6760208,92.8356047 14.6770694,92.8360233 C14.6781181,92.8362327 27.8226733,96.2965417 27.8239316,96.296751 C28.0030344,96.3438514 28.1829762,96.3664596 28.3601915,96.3664596 C29.2894711,96.3664596 30.1386367,95.7453624 30.3865284,94.8064945 C30.6820272,93.6886452 30.0136422,92.5433729 28.8935153,92.2484197 L17.8071748,89.3298699 L25.5161473,61.0648181 C26.2717768,61.1692763 27.0280354,61.2230754 27.779051,61.2230754 C37.1307783,61.2230754 44.8542217,53.3763589 48.439005,40.2330459 C49.9108362,34.836178 50.6215851,28.96391 50.4949128,23.2515741 Z M44.3913645,39.1334087 C41.333823,50.3435121 35.1237359,57.0363736 27.7786316,57.0363736 C26.7088381,57.0363736 25.6195404,56.8923511 24.5405192,56.6082833 C21.308279,55.7573362 18.7205155,53.7877023 17.0576273,50.9122755 C15.0847696,47.5011603 14.4205791,43.0010838 15.0730252,37.7007193 C17.8732374,38.1553952 20.5174162,38.3316553 23.023388,38.3316553 C27.1473674,38.3316553 30.9047523,37.8673501 34.397887,37.4357011 C38.3383594,36.9487877 41.8354788,36.5186041 44.9435634,36.9067114 C44.7743175,37.6569683 44.5912299,38.4003172 44.3913645,39.1334087 Z M45.7094692,32.7872061 C41.9917219,32.2820805 38.0332134,32.7679473 33.8830187,33.2808183 C28.5749472,33.9366651 22.6230281,34.6716406 15.8097796,33.5816328 C15.9479866,32.9833531 16.0989867,32.3781654 16.2665548,31.7641855 C17.5022386,27.2329182 19.4241338,22.6689945 21.8554445,18.4760127 L25.1877222,19.3533361 C24.583722,20.5151458 24.0266995,21.7087745 23.5927841,22.6807173 C23.1213283,23.7366035 23.5967688,24.9741926 24.6546081,25.4449872 C24.9320707,25.5684949 25.2219069,25.6268994 25.5071293,25.6268994 C26.3097365,25.6268994 27.0760618,25.1642688 27.4239912,24.3853329 C28.1024428,22.8659789 28.765375,21.5180702 29.3565822,20.4506706 L46.3138889,24.9145321 C46.296482,27.5410594 46.0915833,30.1885203 45.7094692,32.7872061 Z" id="Shape"></path>
            <g id="Group" transform="translate(56.490683, 13.956522)">
                <path d="M35.8419142,78.6822965 C35.8410758,78.6827137 35.8400279,78.6827137 35.8391896,78.6829224 L22.8084146,82.1040823 C24.0350994,81.7817447 35.8429621,78.6820878 35.8419142,78.6822965 Z" id="Shape"></path>
                <path d="M22.8696499,82.1038736 C22.7629822,82.132119 22.7038331,82.147737 22.7038331,82.147737 L22.8696499,82.1038736 Z" id="Shape"></path>
                <path d="M50.4391067,72.6918242 C50.1442245,71.5777253 48.9965523,70.9134386 47.8782215,71.2065676 L36.7668005,74.1236708 L29.06151,45.9471914 C32.4634487,44.5946253 35.2167304,42.2203846 37.0927009,38.9851164 C40.3355667,33.3933414 40.7522162,25.6937496 38.2977987,16.7189944 C36.8271602,11.3412765 34.4565757,5.92621338 31.4421545,1.05881123 C30.9573908,0.276647032 30.0155283,-0.0982660272 29.1235463,0.136445821 L1.60917234,7.3601463 C0.705663359,7.59736174 0.0689525528,8.40122374 0.0482039123,9.33130856 C-0.0658088194,14.4542858 0.500063194,19.7045291 1.68587944,24.6238808 C1.69908312,24.6929382 1.71543053,24.7613698 1.73534084,24.8283409 C1.85291647,25.3071531 1.97384542,25.7840876 2.10294807,26.2560148 C5.68470833,39.3541878 13.4025739,47.1747866 22.7484741,47.1756211 C22.7488933,47.1756211 22.7493124,47.1756211 22.7499412,47.1756211 C23.500036,47.1756211 24.2555799,47.1220025 25.0102855,47.0178947 L32.714109,75.1881151 L21.6351733,78.096873 C20.5157946,78.3906279 19.8478561,79.5320577 20.1431574,80.6463652 C20.3910932,81.5822918 21.2396917,82.2010965 22.1681409,82.2010965 C22.3450283,82.2010965 22.5250595,82.1785642 22.7040427,82.1316218 L35.8385609,78.6829224 C35.8387704,78.6829224 35.83898,78.6829224 35.8391896,78.6829224 L48.94751,75.2415251 C50.0664695,74.9475615 50.7344081,73.8059231 50.4391067,72.6918242 Z M4.22643519,10.9880613 L28.6679145,4.57135228 C31.0978109,8.75026634 33.0184224,13.2988776 34.2532809,17.8151509 C34.6114569,19.1249473 34.9010996,20.3986503 35.125143,21.6345907 C33.8502543,21.5087852 32.551054,21.4893823 31.2275423,21.5419578 C31.0026605,20.0145574 30.671311,18.4224808 30.3892134,17.1875836 C30.1328943,16.0640962 29.009324,15.3599606 27.8811429,15.6155357 C26.752333,15.8709022 26.0452025,16.9887565 26.3019408,18.1124526 C26.619877,19.5046589 26.8699086,20.7875417 27.040299,21.8866191 C26.0913106,21.9942736 25.1320528,22.1156978 24.1616871,22.2387912 C18.7207229,22.9299915 12.5952631,23.7071485 5.48392856,22.4445031 C4.68018072,18.729171 4.2511659,14.836501 4.22643519,10.9880613 Z M22.7499412,43.0025488 C22.749522,43.0025488 22.7491029,43.0025488 22.7488933,43.0025488 C15.7867813,43.0019229 9.84701137,36.9983067 6.64648117,26.8474887 C8.98311342,27.1664882 11.2059425,27.2964664 13.3250284,27.2964664 C17.4588283,27.2964664 21.2082543,26.8201578 24.6925589,26.3776477 C28.8018376,25.8558572 32.4227897,25.3966565 35.6421823,25.9005046 C35.8863456,30.2473681 35.158257,33.9748008 33.4625272,36.8987889 C31.8005401,39.7645684 29.2147146,41.7278026 25.9846333,42.5756861 C24.9063327,42.8592181 23.8181818,43.0025488 22.7499412,43.0025488 Z" id="Shape"></path>
            </g>
            <path d="M53.1677019,0 C52.0667317,0 51.173913,0.903924771 51.173913,2.01904126 L51.173913,7.28530657 C51.173913,8.40042306 52.0667317,9.30434783 53.1677019,9.30434783 C54.268672,9.30434783 55.1614907,8.40042306 55.1614907,7.28530657 L55.1614907,2.01904126 C55.1614907,0.903924771 54.2688714,0 53.1677019,0 Z" id="Shape"></path>
            <path d="M46.2467525,10.2368728 L43.5986684,5.65480091 C43.0400726,4.68844602 41.8157584,4.36429928 40.8634474,4.93145466 C39.9113362,5.49820436 39.592367,6.74103735 40.150763,7.70739223 L42.7988471,12.2894641 C43.1709779,12.933295 43.8386948,13.2919255 44.5247984,13.2919255 C44.8683498,13.2919255 45.2162981,13.202065 45.5340682,13.0128104 C46.4861793,12.4460607 46.8051485,11.2032277 46.2467525,10.2368728 Z" id="Shape"></path>
            <path d="M65.4720074,4.93136742 C64.5197028,4.36440896 63.2953967,4.68835625 62.7368046,5.65472122 L60.0887382,10.2368409 C59.5301461,11.203003 59.849313,12.4460518 60.8014178,13.0128075 C61.1191858,13.2020641 61.4671317,13.2919255 61.8106809,13.2919255 C62.49658,13.2919255 63.1642925,12.9332913 63.5366206,12.2894537 L66.1846871,7.70733396 C66.7430793,6.74096899 66.4239124,5.49812303 65.4720074,4.93136742 Z" id="Shape"></path>
            <path d="M84.9766102,25.3324589 C84.9756149,25.3298778 84.9740223,25.3249139 84.9726288,25.3203472 C84.6475473,24.2813229 83.5427082,23.6955936 82.4967938,24.0106961 C81.4441111,24.3275856 80.8484933,25.4355076 81.1662092,26.4852537 C81.1697925,26.495777 81.1757646,26.5152351 81.1793478,26.5267512 C81.4480925,27.3721869 82.2314334,27.9130435 83.076486,27.9130435 C83.2737645,27.9130435 83.4746262,27.8834592 83.6729001,27.8213123 C84.7219995,27.4931053 85.305474,26.3788297 84.9766102,25.3324589 Z" id="Shape"></path>
            <circle id="Oval" cx="22.5962733" cy="28.5776398" r="1.99378882"></circle>
        </g>
    </g>
</svg>