<?xml version="1.0" encoding="UTF-8"?>
<svg width="107px" height="107px" viewBox="0 0 107 107" version="1.1" xmlns="http://www.w3.org/2000/svg" xmlns:xlink="http://www.w3.org/1999/xlink">
    <!-- Generator: Sketch 48.2 (47327) - http://www.bohemiancoding.com/sketch -->
    <title>chef (2)</title>
    <desc>Created with Sketch.</desc>
    <defs></defs>
    <g id="Home" stroke="none" stroke-width="1" fill="none" fill-rule="evenodd" transform="translate(-517.000000, -3374.000000)" opacity="0.98999995">
        <g id="chef-(2)" transform="translate(517.000000, 3374.000000)" fill="#B41D24" fill-rule="nonzero">
            <path d="M79.8695369,7.25342969 C77.501119,7.25342969 75.1646982,7.55729297 72.8987548,8.15854102 C67.8061856,2.94939648 60.8494153,0 53.5001046,0 C46.1507938,0 39.1938144,2.94939648 34.1014543,8.15854102 C31.8350927,7.55729297 29.4992993,7.25342969 27.1306722,7.25342969 C12.1706359,7.25342969 0,19.4154844 0,34.3647637 C0,45.0079199 6.28169276,54.6492051 15.8459187,59.0249199 L15.8459187,106.999582 L33.0825641,106.999582 L33.0825641,59.010918 L39.4437269,59.010918 L39.4437269,107 L50.3194186,107 L50.3194186,61.1298105 L56.6805814,61.1298105 L56.6805814,107 L67.5562731,107 L67.5562731,59.010918 L73.9174359,59.010918 L73.9174359,107 L91.1540813,107 L91.1540813,59.0251289 C100.718307,54.6494141 107,45.0081289 107,34.3649727 C107.000418,19.4154844 94.8295732,7.25342969 79.8695369,7.25342969 Z" id="Shape"></path>
        </g>
    </g>
</svg>