<?xml version="1.0" encoding="UTF-8"?>
<svg width="107px" height="95px" viewBox="0 0 107 95" version="1.1" xmlns="http://www.w3.org/2000/svg" xmlns:xlink="http://www.w3.org/1999/xlink">
    <!-- Generator: Sketch 48.2 (47327) - http://www.bohemiancoding.com/sketch -->
    <title>covered-food-tray-on-a-hand-of-hotel-room-service (1)</title>
    <desc>Created with Sketch.</desc>
    <defs></defs>
    <g id="Home" stroke="none" stroke-width="1" fill="none" fill-rule="evenodd" transform="translate(-1117.000000, -3386.000000)" opacity="0.98999995">
        <g id="covered-food-tray-on-a-hand-of-hotel-room-service-(1)" transform="translate(1117.000000, 3386.000000)" fill="#B41D24" fill-rule="nonzero">
            <path d="M36.4826909,48.98051 C36.553247,47.8467509 36.623803,46.7113212 36.7745108,45.564476 C37.0530661,42.8453474 37.6516637,40.1150817 38.2632437,37.4591563 C38.6354975,36.1343955 39.0387959,34.8257836 39.46185,33.5464066 C40.0028739,32.2976567 40.5323266,31.055589 41.0603682,29.8424779 C42.2555878,27.4744471 43.5919196,25.2617792 45.1870511,23.4096757 C45.565796,22.9324499 45.9411543,22.4699809 46.3086102,22.0058413 C46.7282777,21.5918188 47.1482274,21.1906039 47.5529369,20.789389 C48.4072297,20.0276098 49.1480684,19.2026275 50.00095,18.5976032 C51.7007867,17.3555356 53.2047597,16.1747221 54.7358262,15.44357 C56.2115768,14.6313953 57.4770703,13.9264154 58.6181029,13.5285417 C60.8544478,12.6406346 62.1236102,12.1943144 62.1236102,12.1943144 C62.1236102,12.1943144 61.0412803,13.0418494 59.1495312,14.4167273 C58.1721886,15.0459747 57.1361434,16.0391277 55.9031057,17.0565039 C54.6175742,18.0268257 53.4536814,19.4178524 52.069936,20.750966 C51.3779221,21.432001 50.8405672,22.2876105 50.1860891,23.0752835 C49.8680224,23.4764984 49.5417712,23.880776 49.2053599,24.2917358 C48.9332957,24.7447383 48.6513537,25.1991329 48.366025,25.6632725 C47.1445584,27.4491102 46.231563,29.5453951 45.2801851,31.6723072 C44.8898689,32.7851842 44.4950372,33.9142101 44.0914566,35.054373 C43.8160057,36.2399198 43.5112035,37.4382742 43.1784611,38.6321738 C42.6783598,41.085682 42.1881362,43.5881935 41.9764681,46.1614258 C41.829147,47.0947167 41.7585909,48.036082 41.6699725,48.9838512 C62.3953922,48.9871923 78.4364538,49 100.88203,49 C100.957384,48.0293997 101,47.0459918 101,46.0578505 C101,27.4084597 87.2243524,12.0486965 69.4978475,10.0139441 C70.6422669,8.95786645 71.3670187,7.4599234 71.3670187,5.79380981 C71.3735099,2.59133009 68.7437444,0 65.5040923,0 C62.2610535,0 59.6281835,2.59133009 59.6281835,5.79380981 C59.6281835,7.46326454 60.3495486,8.95758802 61.4970724,10.0139441 C43.7719787,12.0486965 30,27.4084597 30,46.0578505 C30,47.0429291 30.0358425,48.0132509 30.1097852,48.9807885 C32.2987165,48.98051 34.4120116,48.98051 36.4826909,48.98051 Z" id="Shape"></path>
            <rect id="Rectangle-path" x="23" y="51" width="84" height="7"></rect>
            <path d="M73.1909304,63.5925519 C68.9250404,65.6486172 54.0507298,70.9709227 54.0507298,70.9709227 L36.4681506,69.8780693 C36.4681506,69.8780693 46.525378,67.1029551 50.4240883,66.2343844 C54.329572,65.3688938 52.6308362,61 50.4715027,61 C48.3124515,61 29.4951208,61.7708495 29.4951208,61.7708495 L17,66.2343844 L20.3068762,87 C20.3068762,87 22.8793928,82.6308262 25.4454181,82.6308262 C28.0210392,82.6308262 50.3306705,83.2196735 53.3589868,82.6308262 C56.3889964,82.0352589 74.8439452,69.5101447 77.0540798,68.0493668 C79.2543365,66.5953089 77.473472,61.5334066 73.1909304,63.5925519 Z" id="Shape"></path>
            <polygon id="Shape" points="0 68.4694474 0 95 19 91.4950847 14.2467787 66"></polygon>
        </g>
    </g>
</svg>