<?xml version="1.0" encoding="UTF-8"?>
<svg width="107px" height="78px" viewBox="0 0 107 78" version="1.1" xmlns="http://www.w3.org/2000/svg" xmlns:xlink="http://www.w3.org/1999/xlink">
    <!-- Generator: Sketch 48.2 (47327) - http://www.bohemiancoding.com/sketch -->
    <title>plate-fork-and-knife</title>
    <desc>Created with Sketch.</desc>
    <defs></defs>
    <g id="Home" stroke="none" stroke-width="1" fill="none" fill-rule="evenodd" transform="translate(-217.000000, -3404.000000)" opacity="0.98999995">
        <g id="plate-fork-and-knife" transform="translate(217.000000, 3404.000000)" fill="#B41D24" fill-rule="nonzero">
            <path d="M58.1512967,63.2695652 C71.746921,63.2695652 82.8086957,52.2112995 82.8086957,38.6156752 C82.8086957,25.0200509 71.7472719,13.9565217 58.1512967,13.9565217 C44.5563742,13.9565217 33.4956522,25.0182964 33.4956522,38.6156752 C33.4956522,52.2112995 44.5546197,63.2695652 58.1512967,63.2695652 Z" id="Shape"></path>
            <path d="M57.687134,70.7130435 C75.1611019,70.7130435 89.3217391,56.5488989 89.3217391,39.0789708 C89.3217391,21.6047831 75.1607469,7.44347826 57.687134,7.44347826 C40.214941,7.44347826 26.0521739,21.6047831 26.0521739,39.0789708 C26.0521739,56.5485439 40.214941,70.7130435 57.687134,70.7130435 Z M57.687134,12.2901622 C72.4569072,12.2901622 84.4766941,24.3099669 84.4766941,39.0789708 C84.4766941,53.8486847 72.4572622,65.8660045 57.687134,65.8660045 C42.9170058,65.8660045 30.8993488,53.8490396 30.8993488,39.0789708 C30.8993488,24.3099669 42.9170058,12.2901622 57.687134,12.2901622 Z" id="Shape"></path>
            <path d="M107,73.5371157 L105.144402,2.75995064 C105.144402,1.23596251 103.89794,0 102.361006,0 C101.94992,0 101.563813,0.0934137141 101.214104,0.254056995 L101.214104,0.227872848 C101.214104,0.227872848 101.141664,0.273872025 101.038179,0.343932311 C100.771972,0.489714319 100.532886,0.669111111 100.326272,0.888491803 C98.2893967,2.54623139 91.7951619,9.30280287 91.2513291,18.4361165 C90.4266587,32.3674981 97.2509757,38.0094741 99.5758254,43.1769509 L97.7205846,73.5357003 C97.7205846,75.0593346 100.822644,76.295651 102.359222,76.295651 C103.89794,76.2970663 107,75.0611038 107,73.5371157 Z" id="Shape"></path>
            <path d="M4.8720289,30.4090741 L9.68930383,32.7935792 C10.2382749,33.0662866 10.8434314,33.2652318 11.475786,33.4131108 L9.61486708,74.906833 C9.61486708,76.188806 12.7268961,77.226087 14.2671644,77.226087 C15.8081484,77.226087 18.9194617,76.188806 18.9194617,74.906833 L17.0585428,33.2006899 C17.713801,32.9964253 18.3450819,32.7471232 18.8976317,32.4120017 L22.4666595,30.2583581 C25.041885,28.70155 26.9826087,25.2776362 26.9826087,22.2881391 L26.9826087,3.69651744 C26.9826087,2.16914334 25.7322143,0.930434783 24.1912303,0.930434783 C22.650962,0.930434783 21.3998519,2.16914334 21.3998519,3.69651744 L21.3998519,20.4437294 L19.8495633,20.4437294 L19.8495633,3.69651744 C19.8495633,2.16914334 18.5991689,0.930434783 17.0581849,0.930434783 C15.5179166,0.930434783 14.2668065,2.16914334 14.2668065,3.69651744 L14.2668065,20.4437294 L12.7111499,20.4437294 L12.7111499,3.69651744 C12.7111499,2.16914334 11.4607555,0.930434783 9.91977149,0.930434783 C8.3795032,0.930434783 7.1283931,2.16914334 7.1283931,3.69651744 L7.1283931,20.4437294 L5.58275678,20.4437294 L5.58275678,4.29406222 C5.58275678,2.76704274 4.33236241,1.52797956 2.79137839,1.52797956 C1.25111011,1.52797956 0,2.76704274 0,4.29406222 L0,22.5970184 C0,25.6733988 2.09532314,29.0334799 4.8720289,30.4090741 Z" id="Shape"></path>
        </g>
    </g>
</svg>